<svg xmlns="http://www.w3.org/2000/svg" xmlns:xlink="http://www.w3.org/1999/xlink" xmlns:lucid="lucid" width="2380" height="1057.87"><g transform="translate(2240 1017.8666666666667)" lucid:page-tab-id="YaicNBpFDM9D"><path d="M-2764.68-1301.83H160V160h-2924.68z" fill="#1f1f1f"/><path d="M-2200-954a6 6 0 0 1 6-6h412.8a6 6 0 0 1 6 6v108a6 6 0 0 1-6 6H-2194a6 6 0 0 1-6-6z" stroke="#000" stroke-width="9" fill="url(#a)"/><use xlink:href="#b" transform="matrix(1,0,0,1,-2194.439,-954.439) translate(39.51851851851856 40.440972222222214)"/><use xlink:href="#c" transform="matrix(1,0,0,1,-2194.439,-954.439) translate(148.44444444444446 40.440972222222214)"/><use xlink:href="#d" transform="matrix(1,0,0,1,-2194.439,-954.439) translate(339.01234567901236 40.440972222222214)"/><use xlink:href="#e" transform="matrix(1,0,0,1,-2194.439,-954.439) translate(96.97222222222227 80.86301671757563)"/><path d="M-2220-614a6 6 0 0 1 6-6h452.1a6 6 0 0 1 6 6v108a6 6 0 0 1-6 6H-2214a6 6 0 0 1-6-6z" stroke="#000" stroke-width="9" fill="url(#f)"/><use xlink:href="#g" transform="matrix(1,0,0,1,-2214.439,-614.439) translate(62.06172839506178 60.878472222222214)"/><use xlink:href="#h" transform="matrix(1,0,0,1,-2214.439,-614.439) translate(292.6111111111111 60.878472222222214)"/><path d="M-1480-991.87a6 6 0 0 1 6-6h309.88a6 6 0 0 1 6 6v183.74a6 6 0 0 1-6 6H-1474a6 6 0 0 1-6-6z" stroke="#000" stroke-width="9" fill="url(#i)"/><use xlink:href="#j" transform="matrix(1,0,0,1,-1474.439,-992.3056666666666) translate(5.753086419753117 41.784722222222214)"/><use xlink:href="#k" transform="matrix(1,0,0,1,-1474.439,-992.3056666666666) translate(206.8148148148148 41.784722222222214)"/><use xlink:href="#l" transform="matrix(1,0,0,1,-1474.439,-992.3056666666666) translate(55.02160493827162 82.20676671757563)"/><use xlink:href="#m" transform="matrix(1,0,0,1,-1474.439,-992.3056666666666) translate(132.46604938271605 82.20676671757563)"/><use xlink:href="#n" transform="matrix(1,0,0,1,-1474.439,-992.3056666666666) translate(220.50925925925924 82.20676671757563)"/><use xlink:href="#o" transform="matrix(1,0,0,1,-1474.439,-992.3056666666666) translate(63.46913580246917 122.62881121292905)"/><use xlink:href="#p" transform="matrix(1,0,0,1,-1474.439,-992.3056666666666) translate(82.20061728395065 163.05085570828248)"/><path d="M-940-434a6 6 0 0 1 6-6h300.06a6 6 0 0 1 6 6v183.73a6 6 0 0 1-6 6H-934a6 6 0 0 1-6-6z" stroke="#000" stroke-width="9" fill="url(#q)"/><use xlink:href="#r" transform="matrix(1,0,0,1,-934.439,-434.439) translate(21.006172839506235 41.784722222222214)"/><use xlink:href="#s" transform="matrix(1,0,0,1,-934.439,-434.439) translate(229.83333333333331 41.784722222222214)"/><use xlink:href="#t" transform="matrix(1,0,0,1,-934.439,-434.439) translate(11.299382716049422 82.20676671757563)"/><use xlink:href="#u" transform="matrix(1,0,0,1,-934.439,-434.439) translate(78.25000000000003 82.20676671757563)"/><use xlink:href="#v" transform="matrix(1,0,0,1,-934.439,-434.439) translate(214.3549382716049 82.20676671757563)"/><use xlink:href="#w" transform="matrix(1,0,0,1,-934.439,-434.439) translate(29.978395061728435 122.62881121292905)"/><use xlink:href="#x" transform="matrix(1,0,0,1,-934.439,-434.439) translate(84.44135802469138 122.62881121292905)"/><use xlink:href="#y" transform="matrix(1,0,0,1,-934.439,-434.439) translate(22.737654320987687 163.05085570828248)"/><use xlink:href="#z" transform="matrix(1,0,0,1,-934.439,-434.439) translate(200.8179012345679 163.05085570828248)"/><path d="M-1766.7-900h251" stroke="#979ea8" stroke-width="8" fill="none"/><path d="M-1766.6-896h-4.1v-8h4.1z" stroke="#979ea8" stroke-width=".05" fill="#979ea8"/><path d="M-1497.44-900l-14.27 4.63v-9.26z" stroke="#979ea8" stroke-width="8" fill="#979ea8"/><path d="M-1746.9-560h122.96a6 6 0 0 0 6-6v-317.94a6 6 0 0 1 6-6h94.1" stroke="#979ea8" stroke-width="9" fill="none"/><path d="M-1746.77-555.5h-4.62v-9h4.63z" stroke="#979ea8" stroke-width=".05" fill="#979ea8"/><path d="M-1499.06-889.94l-14.27 4.64v-9.28z" stroke="#979ea8" stroke-width="9" fill="#979ea8"/><path d="M-1580-454a6 6 0 0 1 6-6h356.74a6 6 0 0 1 6 6v246.57a6 6 0 0 1-6 6H-1574a6 6 0 0 1-6-6z" stroke="#000" stroke-width="9" fill="url(#A)"/><use xlink:href="#B" transform="matrix(1,0,0,1,-1574.439,-454.439) translate(47.14506172839509 37.972222222222214)"/><use xlink:href="#C" transform="matrix(1,0,0,1,-1574.439,-454.439) translate(185.24382716049385 37.972222222222214)"/><use xlink:href="#D" transform="matrix(1,0,0,1,-1574.439,-454.439) translate(20.753086419753117 78.39426671757563)"/><use xlink:href="#t" transform="matrix(1,0,0,1,-1574.439,-454.439) translate(140.2777777777778 78.39426671757563)"/><use xlink:href="#E" transform="matrix(1,0,0,1,-1574.439,-454.439) translate(207.2283950617284 78.39426671757563)"/><use xlink:href="#F" transform="matrix(1,0,0,1,-1574.439,-454.439) translate(5.0123456790123555 118.81631121292905)"/><use xlink:href="#G" transform="matrix(1,0,0,1,-1574.439,-454.439) translate(147.41358024691357 118.81631121292905)"/><use xlink:href="#H" transform="matrix(1,0,0,1,-1574.439,-454.439) translate(195.58024691358023 118.81631121292905)"/><use xlink:href="#I" transform="matrix(1,0,0,1,-1574.439,-454.439) translate(269.037037037037 118.81631121292905)"/><use xlink:href="#J" transform="matrix(1,0,0,1,-1574.439,-454.439) translate(63.72530864197533 159.23835570828248)"/><use xlink:href="#K" transform="matrix(1,0,0,1,-1574.439,-454.439) translate(141.37962962962962 159.23835570828248)"/><use xlink:href="#L" transform="matrix(1,0,0,1,-1574.439,-454.439) translate(43.99691358024694 199.6604002036359)"/><use xlink:href="#M" transform="matrix(1,0,0,1,-1574.439,-454.439) translate(201.0895061728395 199.6604002036359)"/><use xlink:href="#N" transform="matrix(1,0,0,1,-1574.439,-454.439) translate(257.5462962962963 199.6604002036359)"/><use xlink:href="#O" transform="matrix(1,0,0,1,-1574.439,-454.439) translate(140.22530864197532 240.08244469898932)"/><path d="M-1395.63-192.43v29.5a6 6 0 0 0 6 6h399.13a6 6 0 0 0 6-6v-173.2a6 6 0 0 1 6-6h.67" stroke="#979ea8" stroke-width="9" fill="none"/><path d="M-1391.13-192.32h-9v-4.6h9z" stroke="#979ea8" stroke-width=".05" fill="#979ea8"/><path d="M-959.06-342.13l-14.27 4.63v-9.27z" stroke="#979ea8" stroke-width="9" fill="#979ea8"/><path d="M-460-974a6 6 0 0 1 6-6h376.45a6 6 0 0 1 6 6v269.6a6 6 0 0 1-6 6H-454a6 6 0 0 1-6-6z" stroke="#000" stroke-width="9" fill="url(#P)"/><g><use xlink:href="#Q" transform="matrix(1,0,0,1,-454.439,-974.439) translate(44.447530864197546 42.925347222222214)"/><use xlink:href="#R" transform="matrix(1,0,0,1,-454.439,-974.439) translate(157.570987654321 42.925347222222214)"/><use xlink:href="#N" transform="matrix(1,0,0,1,-454.439,-974.439) translate(277.09567901234567 42.925347222222214)"/><use xlink:href="#S" transform="matrix(1,0,0,1,-454.439,-974.439) translate(25.611111111111143 83.34739171757563)"/><use xlink:href="#T" transform="matrix(1,0,0,1,-454.439,-974.439) translate(147.02469135802468 83.34739171757563)"/><use xlink:href="#U" transform="matrix(1,0,0,1,-454.439,-974.439) translate(222.4753086419753 83.34739171757563)"/><use xlink:href="#V" transform="matrix(1,0,0,1,-454.439,-974.439) translate(331.4012345679012 83.34739171757563)"/><use xlink:href="#W" transform="matrix(1,0,0,1,-454.439,-974.439) translate(14.067901234567955 123.76943621292905)"/><use xlink:href="#F" transform="matrix(1,0,0,1,-454.439,-974.439) translate(154.58024691358025 123.76943621292905)"/><use xlink:href="#X" transform="matrix(1,0,0,1,-454.439,-974.439) translate(296.98148148148147 123.76943621292905)"/><use xlink:href="#H" transform="matrix(1,0,0,1,-454.439,-974.439) translate(9.765432098765473 164.19148070828248)"/><use xlink:href="#Y" transform="matrix(1,0,0,1,-454.439,-974.439) translate(83.22222222222226 164.19148070828248)"/><use xlink:href="#J" transform="matrix(1,0,0,1,-454.439,-974.439) translate(177.66666666666669 164.19148070828248)"/><use xlink:href="#Z" transform="matrix(1,0,0,1,-454.439,-974.439) translate(255.320987654321 164.19148070828248)"/><use xlink:href="#aa" transform="matrix(1,0,0,1,-454.439,-974.439) translate(92.6666666666667 204.6135252036359)"/><use xlink:href="#ab" transform="matrix(1,0,0,1,-454.439,-974.439) translate(180.70987654320987 204.6135252036359)"/><use xlink:href="#ac" transform="matrix(1,0,0,1,-454.439,-974.439) translate(224.67901234567898 204.6135252036359)"/><use xlink:href="#ad" transform="matrix(1,0,0,1,-454.439,-974.439) translate(40.14506172839509 245.03556969898932)"/><use xlink:href="#ae" transform="matrix(1,0,0,1,-454.439,-974.439) translate(247.71296296296293 245.03556969898932)"/></g><path d="M-1149.12-900h29.5a6 6 0 0 1 6 6v383.5a6 6 0 0 1-6 6h-270a6 6 0 0 0-6 6v.67" stroke="#979ea8" stroke-width="9" fill="none"/><path d="M-1149-895.5h-4.62v-9h4.62z" stroke="#979ea8" stroke-width=".05" fill="#979ea8"/><path d="M-1395.63-479.06l-4.64-14.27h9.27z" stroke="#979ea8" stroke-width="9" fill="#979ea8"/><path d="M-618.94-342.13h68.97a6 6 0 0 0 6-6V-833.2a6 6 0 0 1 6-6h40.14" stroke="#979ea8" stroke-width="9" fill="none"/><path d="M-618.83-337.63h-4.6v-9h4.6z" stroke="#979ea8" stroke-width=".05" fill="#979ea8"/><path d="M-479.06-839.2l-14.27 4.63v-9.26z" stroke="#979ea8" stroke-width="9" fill="#979ea8"/><path d="M-480-668a12 12 0 0 1 12-12h576a12 12 0 0 1 12 12V8a12 12 0 0 1-12 12h-576a12 12 0 0 1-12-12z" stroke="#dfe3e8" stroke-width="2" fill="url(#af)"/><path d="M-421.28-562.34c0-.7.58-1.3 1.3-1.3h31.94c.72 0 1.3.6 1.3 1.3v23.32c0 .7-.58 1.3-1.3 1.3H-420c-.7 0-1.28-.6-1.28-1.3z" stroke="#000" stroke-width="1.05" fill="#cc4e00"/><path d="M-421.28-456.42c0-.7.58-1.3 1.3-1.3h31.94c.72 0 1.3.6 1.3 1.3v23.32c0 .7-.58 1.3-1.3 1.3H-420c-.7 0-1.28-.6-1.28-1.3z" stroke="#000" stroke-width="1.05" fill="#1071e5"/><path d="M-383.3-338.84c0 11.45-9.27 20.73-20.7 20.73-11.46 0-20.74-9.3-20.74-20.74 0-11.44 9.28-20.72 20.73-20.72 11.43 0 20.7 9.28 20.7 20.72z" stroke="#000" stroke-opacity=".25" fill="#ced4db"/><path d="M-421.28-133.1c0-.76.62-1.38 1.38-1.38h26.6c.76 0 1.38-.62 1.38-1.38v-.12c0-.3.23-.53.53-.53.16 0 .3.05.4.17l3.33 3.7c.53.6.53 1.47 0 2.06l-3.33 3.7c-.2.22-.53.23-.75.04-.12-.1-.17-.24-.17-.4v-.1c0-.77-.62-1.4-1.4-1.4h-26.58c-.76 0-1.38-.6-1.38-1.37z" stroke="#000" stroke-width="1.05" fill="#c3f7c8"/><g><use xlink:href="#ag" transform="matrix(1,0,0,1,-424.7368421052631,-638.5526315789474) translate(173.32098765432102 35.888888888888886)"/></g><g><use xlink:href="#ah" transform="matrix(1,0,0,1,-362.56578947368416,-571.4035087719299) translate(0 55.388888888888886)"/><use xlink:href="#ai" transform="matrix(1,0,0,1,-362.56578947368416,-571.4035087719299) translate(157.77777777777771 55.388888888888886)"/></g><g><use xlink:href="#aj" transform="matrix(1,0,0,1,-362.56578947368416,-465.4824561403509) translate(0 55.388888888888886)"/><use xlink:href="#ai" transform="matrix(1,0,0,1,-362.56578947368416,-465.4824561403509) translate(227.03703703703692 55.388888888888886)"/></g><g><use xlink:href="#ak" transform="matrix(1,0,0,1,-362.56578947368416,-359.56140350877195) translate(0 76.55555555555556)"/><use xlink:href="#al" transform="matrix(1,0,0,1,-362.56578947368416,-359.56140350877195) translate(172.46913580246905 76.55555555555556)"/><use xlink:href="#am" transform="matrix(1,0,0,1,-362.56578947368416,-359.56140350877195) translate(0 135.2222222222222)"/></g><g><use xlink:href="#an" transform="matrix(1,0,0,1,-362.56578947368416,-152.32456140350882) translate(0 55.388888888888886)"/><use xlink:href="#ao" transform="matrix(1,0,0,1,-362.56578947368416,-152.32456140350882) translate(189.87654320987644 55.388888888888886)"/></g><defs><linearGradient gradientUnits="userSpaceOnUse" id="a" x1="-1775.19" y1="-960" x2="-1775.19" y2="-840"><stop offset="0%" stop-color="#ff6f16"/><stop offset="48.55%" stop-color="#cc4e00"/><stop offset="100%" stop-color="#873400"/></linearGradient><path fill="#fff" d="M24 0v-248h52v208h133V0H24" id="ap"/><path fill="#fff" d="M110-194c64 0 96 36 96 99 0 64-35 99-97 99-61 0-95-36-95-99 0-62 34-99 96-99zm-1 164c35 0 45-28 45-65 0-40-10-65-43-65-34 0-45 26-45 65 0 36 10 65 43 65" id="aq"/><path fill="#fff" d="M190-63c-7 42-38 67-86 67-59 0-84-38-90-98-12-110 154-137 174-36l-49 2c-2-19-15-32-35-32-30 0-35 28-38 64-6 74 65 87 74 30" id="ar"/><path fill="#fff" d="M133-34C117-15 103 5 69 4 32 3 11-16 11-54c-1-60 55-63 116-61 1-26-3-47-28-47-18 1-26 9-28 27l-52-2c7-38 36-58 82-57s74 22 75 68l1 82c-1 14 12 18 25 15v27c-30 8-71 5-69-32zm-48 3c29 0 43-24 42-57-32 0-66-3-65 30 0 17 8 27 23 27" id="as"/><path fill="#fff" d="M25 0v-261h50V0H25" id="at"/><g id="b"><use transform="matrix(0.10493827160493825,0,0,0.10493827160493825,0,0)" xlink:href="#ap"/><use transform="matrix(0.10493827160493825,0,0,0.10493827160493825,22.981481481481477,0)" xlink:href="#aq"/><use transform="matrix(0.10493827160493825,0,0,0.10493827160493825,45.962962962962955,0)" xlink:href="#ar"/><use transform="matrix(0.10493827160493825,0,0,0.10493827160493825,66.9506172839506,0)" xlink:href="#as"/><use transform="matrix(0.10493827160493825,0,0,0.10493827160493825,87.93827160493825,0)" xlink:href="#at"/></g><path fill="#fff" d="M240-174c0 40-23 61-54 70L253 0h-59l-57-94H76V0H24v-248c93 4 217-23 216 74zM76-134c48-2 112 12 112-38 0-48-66-32-112-35v73" id="au"/><path fill="#fff" d="M185-48c-13 30-37 53-82 52C43 2 14-33 14-96s30-98 90-98c62 0 83 45 84 108H66c0 31 8 55 39 56 18 0 30-7 34-22zm-45-69c5-46-57-63-70-21-2 6-4 13-4 21h74" id="av"/><path fill="#fff" d="M137-138c1-29-70-34-71-4 15 46 118 7 119 86 1 83-164 76-172 9l43-7c4 19 20 25 44 25 33 8 57-30 24-41C81-84 22-81 20-136c-2-80 154-74 161-7" id="aw"/><path fill="#fff" d="M25-224v-37h50v37H25zM25 0v-190h50V0H25" id="ax"/><path fill="#fff" d="M88-194c31-1 46 15 58 34l-1-101h50l1 261h-48c-2-10 0-23-3-31C134-8 116 4 84 4 32 4 16-41 15-95c0-56 19-97 73-99zm17 164c33 0 40-30 41-66 1-37-9-64-41-64s-38 30-39 65c0 43 13 65 39 65" id="ay"/><path fill="#fff" d="M135-194c87-1 58 113 63 194h-50c-7-57 23-157-34-157-59 0-34 97-39 157H25l-1-190h47c2 12-1 28 3 38 12-26 28-41 61-42" id="az"/><path fill="#fff" d="M115-3C79 11 28 4 28-45v-112H4v-33h27l15-45h31v45h36v33H77v99c-1 23 16 31 38 25v30" id="aA"/><g id="c"><use transform="matrix(0.10493827160493825,0,0,0.10493827160493825,0,0)" xlink:href="#au"/><use transform="matrix(0.10493827160493825,0,0,0.10493827160493825,27.179012345679006,0)" xlink:href="#av"/><use transform="matrix(0.10493827160493825,0,0,0.10493827160493825,48.16666666666666,0)" xlink:href="#aw"/><use transform="matrix(0.10493827160493825,0,0,0.10493827160493825,69.1543209876543,0)" xlink:href="#ax"/><use transform="matrix(0.10493827160493825,0,0,0.10493827160493825,79.64814814814812,0)" xlink:href="#ay"/><use transform="matrix(0.10493827160493825,0,0,0.10493827160493825,102.6296296296296,0)" xlink:href="#av"/><use transform="matrix(0.10493827160493825,0,0,0.10493827160493825,123.61728395061726,0)" xlink:href="#az"/><use transform="matrix(0.10493827160493825,0,0,0.10493827160493825,146.59876543209873,0)" xlink:href="#aA"/><use transform="matrix(0.10493827160493825,0,0,0.10493827160493825,159.08641975308637,0)" xlink:href="#aw"/></g><path fill="#fff" d="M121-226c-27-7-43 5-38 36h38v33H83V0H34v-157H6v-33h28c-9-59 32-81 87-68v32" id="aB"/><g id="d"><use transform="matrix(0.10493827160493825,0,0,0.10493827160493825,0,0)" xlink:href="#aq"/><use transform="matrix(0.10493827160493825,0,0,0.10493827160493825,22.981481481481477,0)" xlink:href="#aB"/></g><path fill="#fff" d="M67-125c0 53 21 87 73 88 37 1 54-22 65-47l45 17C233-25 199 4 140 4 58 4 20-42 15-125 8-235 124-281 211-232c18 10 29 29 36 50l-46 12c-8-25-30-41-62-41-52 0-71 34-72 86" id="aC"/><path fill="#fff" d="M114-157C55-157 80-60 75 0H25v-261h50l-1 109c12-26 28-41 61-42 86-1 58 113 63 194h-50c-7-57 23-157-34-157" id="aD"/><path fill="#fff" d="M135-194c53 0 70 44 70 98 0 56-19 98-73 100-31 1-45-17-59-34 3 33 2 69 2 105H25l-1-265h48c2 10 0 23 3 31 11-24 29-35 60-35zM114-30c33 0 39-31 40-66 0-38-9-64-40-64-56 0-55 130 0 130" id="aE"/><path fill="#fff" d="M147 0L96-86 75-71V0H25v-261h50v150l67-79h53l-66 74L201 0h-54" id="aF"/><g id="e"><use transform="matrix(0.10493827160493825,0,0,0.10493827160493825,0,0)" xlink:href="#aC"/><use transform="matrix(0.10493827160493825,0,0,0.10493827160493825,27.179012345679006,0)" xlink:href="#aD"/><use transform="matrix(0.10493827160493825,0,0,0.10493827160493825,50.16049382716048,0)" xlink:href="#av"/><use transform="matrix(0.10493827160493825,0,0,0.10493827160493825,71.14814814814812,0)" xlink:href="#aw"/><use transform="matrix(0.10493827160493825,0,0,0.10493827160493825,92.13580246913577,0)" xlink:href="#as"/><use transform="matrix(0.10493827160493825,0,0,0.10493827160493825,113.12345679012341,0)" xlink:href="#aE"/><use transform="matrix(0.10493827160493825,0,0,0.10493827160493825,136.10493827160488,0)" xlink:href="#av"/><use transform="matrix(0.10493827160493825,0,0,0.10493827160493825,157.09259259259252,0)" xlink:href="#as"/><use transform="matrix(0.10493827160493825,0,0,0.10493827160493825,178.08024691358017,0)" xlink:href="#aF"/><use transform="matrix(0.10493827160493825,0,0,0.10493827160493825,199.0679012345678,0)" xlink:href="#av"/></g><linearGradient gradientUnits="userSpaceOnUse" id="f" x1="-1755.89" y1="-620" x2="-1755.89" y2="-500"><stop offset="0%" stop-color="#ff6f16"/><stop offset="48.55%" stop-color="#cc4e00"/><stop offset="100%" stop-color="#873400"/></linearGradient><g id="g"><use transform="matrix(0.10493827160493825,0,0,0.10493827160493825,0,0)" xlink:href="#aC"/><use transform="matrix(0.10493827160493825,0,0,0.10493827160493825,27.179012345679006,0)" xlink:href="#aD"/><use transform="matrix(0.10493827160493825,0,0,0.10493827160493825,50.16049382716048,0)" xlink:href="#av"/><use transform="matrix(0.10493827160493825,0,0,0.10493827160493825,71.14814814814812,0)" xlink:href="#aw"/><use transform="matrix(0.10493827160493825,0,0,0.10493827160493825,92.13580246913577,0)" xlink:href="#as"/><use transform="matrix(0.10493827160493825,0,0,0.10493827160493825,113.12345679012341,0)" xlink:href="#aE"/><use transform="matrix(0.10493827160493825,0,0,0.10493827160493825,136.10493827160488,0)" xlink:href="#av"/><use transform="matrix(0.10493827160493825,0,0,0.10493827160493825,157.09259259259252,0)" xlink:href="#as"/><use transform="matrix(0.10493827160493825,0,0,0.10493827160493825,178.08024691358017,0)" xlink:href="#aF"/><use transform="matrix(0.10493827160493825,0,0,0.10493827160493825,199.0679012345678,0)" xlink:href="#av"/></g><path fill="#fff" d="M199 0l-22-63H83L61 0H9l90-248h61L250 0h-51zm-33-102l-36-108c-10 38-24 72-36 108h72" id="aG"/><path fill="#fff" d="M135-150c-39-12-60 13-60 57V0H25l-1-190h47c2 13-1 29 3 40 6-28 27-53 61-41v41" id="aH"/><g id="h"><use transform="matrix(0.10493827160493825,0,0,0.10493827160493825,0,0)" xlink:href="#aG"/><use transform="matrix(0.10493827160493825,0,0,0.10493827160493825,27.179012345679006,0)" xlink:href="#aH"/><use transform="matrix(0.10493827160493825,0,0,0.10493827160493825,41.87037037037036,0)" xlink:href="#aA"/><use transform="matrix(0.10493827160493825,0,0,0.10493827160493825,54.35802469135801,0)" xlink:href="#ax"/><use transform="matrix(0.10493827160493825,0,0,0.10493827160493825,64.85185185185183,0)" xlink:href="#aw"/><use transform="matrix(0.10493827160493825,0,0,0.10493827160493825,85.83950617283949,0)" xlink:href="#aA"/></g><linearGradient gradientUnits="userSpaceOnUse" id="i" x1="-1158.12" y1="-997.87" x2="-1158.12" y2="-802.13"><stop offset="0%" stop-color="#ff6f16"/><stop offset="48.55%" stop-color="#cc4e00"/><stop offset="100%" stop-color="#873400"/></linearGradient><path fill="#fff" d="M169-182c-1-43-94-46-97-3 18 66 151 10 154 114 3 95-165 93-204 36-6-8-10-19-12-30l50-8c3 46 112 56 116 5-17-69-150-10-154-114-4-87 153-88 188-35 5 8 8 18 10 28" id="aI"/><path fill="#fff" d="M85 4C-2 5 27-109 22-190h50c7 57-23 150 33 157 60-5 35-97 40-157h50l1 190h-47c-2-12 1-28-3-38-12 25-28 42-61 42" id="aJ"/><g id="j"><use transform="matrix(0.10493827160493825,0,0,0.10493827160493825,0,0)" xlink:href="#aI"/><use transform="matrix(0.10493827160493825,0,0,0.10493827160493825,25.18518518518518,0)" xlink:href="#ar"/><use transform="matrix(0.10493827160493825,0,0,0.10493827160493825,46.172839506172835,0)" xlink:href="#aD"/><use transform="matrix(0.10493827160493825,0,0,0.10493827160493825,69.15432098765432,0)" xlink:href="#av"/><use transform="matrix(0.10493827160493825,0,0,0.10493827160493825,90.14197530864197,0)" xlink:href="#ay"/><use transform="matrix(0.10493827160493825,0,0,0.10493827160493825,113.12345679012346,0)" xlink:href="#aJ"/><use transform="matrix(0.10493827160493825,0,0,0.10493827160493825,136.10493827160494,0)" xlink:href="#at"/><use transform="matrix(0.10493827160493825,0,0,0.10493827160493825,146.59876543209876,0)" xlink:href="#av"/><use transform="matrix(0.10493827160493825,0,0,0.10493827160493825,167.5864197530864,0)" xlink:href="#ay"/></g><g id="k"><use transform="matrix(0.10493827160493825,0,0,0.10493827160493825,0,0)" xlink:href="#ay"/><use transform="matrix(0.10493827160493825,0,0,0.10493827160493825,22.981481481481477,0)" xlink:href="#as"/><use transform="matrix(0.10493827160493825,0,0,0.10493827160493825,43.969135802469125,0)" xlink:href="#aA"/><use transform="matrix(0.10493827160493825,0,0,0.10493827160493825,56.45679012345678,0)" xlink:href="#av"/><use transform="matrix(0.10493827160493825,0,0,0.10493827160493825,77.44444444444443,0)" xlink:href="#aw"/></g><g id="l"><use transform="matrix(0.10493827160493825,0,0,0.10493827160493825,0,0)" xlink:href="#as"/><use transform="matrix(0.10493827160493825,0,0,0.10493827160493825,20.98765432098765,0)" xlink:href="#az"/><use transform="matrix(0.10493827160493825,0,0,0.10493827160493825,43.969135802469125,0)" xlink:href="#ay"/></g><path fill="#fff" d="M220-157c-53 9-28 100-34 157h-49v-107c1-27-5-49-29-50C55-147 81-57 75 0H25l-1-190h47c2 12-1 28 3 38 10-53 101-56 108 0 13-22 24-43 59-42 82 1 51 116 57 194h-49v-107c-1-25-5-48-29-50" id="aK"/><g id="m"><use transform="matrix(0.10493827160493825,0,0,0.10493827160493825,0,0)" xlink:href="#aA"/><use transform="matrix(0.10493827160493825,0,0,0.10493827160493825,12.487654320987652,0)" xlink:href="#ax"/><use transform="matrix(0.10493827160493825,0,0,0.10493827160493825,22.981481481481477,0)" xlink:href="#aK"/><use transform="matrix(0.10493827160493825,0,0,0.10493827160493825,56.56172839506172,0)" xlink:href="#av"/></g><g id="n"><use transform="matrix(0.10493827160493825,0,0,0.10493827160493825,0,0)" xlink:href="#aA"/><use transform="matrix(0.10493827160493825,0,0,0.10493827160493825,12.487654320987652,0)" xlink:href="#aq"/></g><path fill="#fff" d="M135-194c52 0 70 43 70 98 0 56-19 99-73 100-30 1-46-15-58-35L72 0H24l1-261h50v104c11-23 29-37 60-37zM114-30c31 0 40-27 40-66 0-37-7-63-39-63s-41 28-41 65c0 36 8 64 40 64" id="aL"/><g id="o"><use transform="matrix(0.10493827160493825,0,0,0.10493827160493825,0,0)" xlink:href="#ar"/><use transform="matrix(0.10493827160493825,0,0,0.10493827160493825,20.98765432098765,0)" xlink:href="#aq"/><use transform="matrix(0.10493827160493825,0,0,0.10493827160493825,43.969135802469125,0)" xlink:href="#az"/><use transform="matrix(0.10493827160493825,0,0,0.10493827160493825,66.9506172839506,0)" xlink:href="#aA"/><use transform="matrix(0.10493827160493825,0,0,0.10493827160493825,79.43827160493825,0)" xlink:href="#aH"/><use transform="matrix(0.10493827160493825,0,0,0.10493827160493825,94.1296296296296,0)" xlink:href="#ax"/><use transform="matrix(0.10493827160493825,0,0,0.10493827160493825,104.62345679012343,0)" xlink:href="#aL"/><use transform="matrix(0.10493827160493825,0,0,0.10493827160493825,127.60493827160491,0)" xlink:href="#aJ"/><use transform="matrix(0.10493827160493825,0,0,0.10493827160493825,150.58641975308637,0)" xlink:href="#aA"/><use transform="matrix(0.10493827160493825,0,0,0.10493827160493825,163.07407407407402,0)" xlink:href="#av"/></g><g id="p"><use transform="matrix(0.10493827160493825,0,0,0.10493827160493825,0,0)" xlink:href="#as"/><use transform="matrix(0.10493827160493825,0,0,0.10493827160493825,20.98765432098765,0)" xlink:href="#aH"/><use transform="matrix(0.10493827160493825,0,0,0.10493827160493825,35.679012345679006,0)" xlink:href="#aA"/><use transform="matrix(0.10493827160493825,0,0,0.10493827160493825,48.16666666666666,0)" xlink:href="#ax"/><use transform="matrix(0.10493827160493825,0,0,0.10493827160493825,58.66049382716048,0)" xlink:href="#aB"/><use transform="matrix(0.10493827160493825,0,0,0.10493827160493825,71.14814814814812,0)" xlink:href="#as"/><use transform="matrix(0.10493827160493825,0,0,0.10493827160493825,92.13580246913577,0)" xlink:href="#ar"/><use transform="matrix(0.10493827160493825,0,0,0.10493827160493825,113.12345679012341,0)" xlink:href="#aA"/><use transform="matrix(0.10493827160493825,0,0,0.10493827160493825,125.61111111111106,0)" xlink:href="#aw"/></g><linearGradient gradientUnits="userSpaceOnUse" id="q" x1="-627.94" y1="-440" x2="-627.94" y2="-244.27"><stop offset="0%" stop-color="#ff6f16"/><stop offset="48.55%" stop-color="#cc4e00"/><stop offset="100%" stop-color="#873400"/></linearGradient><path fill="#fff" d="M136-208V0H84v-208H4v-40h212v40h-80" id="aM"/><g id="r"><use transform="matrix(0.10493827160493825,0,0,0.10493827160493825,0,0)" xlink:href="#aM"/><use transform="matrix(0.10493827160493825,0,0,0.10493827160493825,22.24691358024691,0)" xlink:href="#ax"/><use transform="matrix(0.10493827160493825,0,0,0.10493827160493825,32.74074074074073,0)" xlink:href="#aK"/><use transform="matrix(0.10493827160493825,0,0,0.10493827160493825,66.32098765432097,0)" xlink:href="#av"/><use transform="matrix(0.10493827160493825,0,0,0.10493827160493825,87.30864197530863,0)" xlink:href="#aw"/><use transform="matrix(0.10493827160493825,0,0,0.10493827160493825,108.29629629629628,0)" xlink:href="#aA"/><use transform="matrix(0.10493827160493825,0,0,0.10493827160493825,120.78395061728394,0)" xlink:href="#as"/><use transform="matrix(0.10493827160493825,0,0,0.10493827160493825,141.77160493827157,0)" xlink:href="#aK"/><use transform="matrix(0.10493827160493825,0,0,0.10493827160493825,175.3518518518518,0)" xlink:href="#aE"/></g><g id="s"><use transform="matrix(0.10493827160493825,0,0,0.10493827160493825,0,0)" xlink:href="#aB"/><use transform="matrix(0.10493827160493825,0,0,0.10493827160493825,12.487654320987652,0)" xlink:href="#aq"/><use transform="matrix(0.10493827160493825,0,0,0.10493827160493825,35.469135802469125,0)" xlink:href="#aH"/></g><g id="t"><use transform="matrix(0.10493827160493825,0,0,0.10493827160493825,0,0)" xlink:href="#aA"/><use transform="matrix(0.10493827160493825,0,0,0.10493827160493825,12.487654320987652,0)" xlink:href="#aD"/><use transform="matrix(0.10493827160493825,0,0,0.10493827160493825,35.469135802469125,0)" xlink:href="#av"/></g><g id="u"><use transform="matrix(0.10493827160493825,0,0,0.10493827160493825,0,0)" xlink:href="#as"/><use transform="matrix(0.10493827160493825,0,0,0.10493827160493825,20.98765432098765,0)" xlink:href="#aH"/><use transform="matrix(0.10493827160493825,0,0,0.10493827160493825,35.679012345679006,0)" xlink:href="#aA"/><use transform="matrix(0.10493827160493825,0,0,0.10493827160493825,48.16666666666666,0)" xlink:href="#ax"/><use transform="matrix(0.10493827160493825,0,0,0.10493827160493825,58.66049382716048,0)" xlink:href="#aB"/><use transform="matrix(0.10493827160493825,0,0,0.10493827160493825,71.14814814814812,0)" xlink:href="#as"/><use transform="matrix(0.10493827160493825,0,0,0.10493827160493825,92.13580246913577,0)" xlink:href="#ar"/><use transform="matrix(0.10493827160493825,0,0,0.10493827160493825,113.12345679012341,0)" xlink:href="#aA"/></g><path fill="#fff" d="M231 0h-52l-39-155L100 0H48L-1-190h46L77-45c9-52 24-97 36-145h53l37 145 32-145h46" id="aN"/><g id="v"><use transform="matrix(0.10493827160493825,0,0,0.10493827160493825,0,0)" xlink:href="#aN"/><use transform="matrix(0.10493827160493825,0,0,0.10493827160493825,29.38271604938271,0)" xlink:href="#ax"/><use transform="matrix(0.10493827160493825,0,0,0.10493827160493825,39.87654320987654,0)" xlink:href="#aA"/><use transform="matrix(0.10493827160493825,0,0,0.10493827160493825,52.36419753086419,0)" xlink:href="#aD"/></g><g id="w"><use transform="matrix(0.10493827160493825,0,0,0.10493827160493825,0,0)" xlink:href="#ax"/><use transform="matrix(0.10493827160493825,0,0,0.10493827160493825,10.493827160493826,0)" xlink:href="#aA"/><use transform="matrix(0.10493827160493825,0,0,0.10493827160493825,22.981481481481477,0)" xlink:href="#aw"/></g><path fill="#fff" d="M128 0H69L1-190h53L99-40l48-150h52" id="aO"/><g id="x"><use transform="matrix(0.10493827160493825,0,0,0.10493827160493825,0,0)" xlink:href="#aH"/><use transform="matrix(0.10493827160493825,0,0,0.10493827160493825,14.691358024691356,0)" xlink:href="#av"/><use transform="matrix(0.10493827160493825,0,0,0.10493827160493825,35.679012345679006,0)" xlink:href="#aw"/><use transform="matrix(0.10493827160493825,0,0,0.10493827160493825,56.66666666666666,0)" xlink:href="#aE"/><use transform="matrix(0.10493827160493825,0,0,0.10493827160493825,79.64814814814814,0)" xlink:href="#av"/><use transform="matrix(0.10493827160493825,0,0,0.10493827160493825,100.6358024691358,0)" xlink:href="#ar"/><use transform="matrix(0.10493827160493825,0,0,0.10493827160493825,121.62345679012343,0)" xlink:href="#aA"/><use transform="matrix(0.10493827160493825,0,0,0.10493827160493825,134.1111111111111,0)" xlink:href="#ax"/><use transform="matrix(0.10493827160493825,0,0,0.10493827160493825,144.6049382716049,0)" xlink:href="#aO"/><use transform="matrix(0.10493827160493825,0,0,0.10493827160493825,165.59259259259255,0)" xlink:href="#av"/></g><g id="y"><use transform="matrix(0.10493827160493825,0,0,0.10493827160493825,0,0)" xlink:href="#aD"/><use transform="matrix(0.10493827160493825,0,0,0.10493827160493825,22.981481481481477,0)" xlink:href="#ax"/><use transform="matrix(0.10493827160493825,0,0,0.10493827160493825,33.4753086419753,0)" xlink:href="#aw"/><use transform="matrix(0.10493827160493825,0,0,0.10493827160493825,54.462962962962955,0)" xlink:href="#aA"/><use transform="matrix(0.10493827160493825,0,0,0.10493827160493825,66.9506172839506,0)" xlink:href="#aq"/><use transform="matrix(0.10493827160493825,0,0,0.10493827160493825,89.93209876543209,0)" xlink:href="#aH"/><use transform="matrix(0.10493827160493825,0,0,0.10493827160493825,104.62345679012344,0)" xlink:href="#ax"/><use transform="matrix(0.10493827160493825,0,0,0.10493827160493825,115.11728395061726,0)" xlink:href="#ar"/><use transform="matrix(0.10493827160493825,0,0,0.10493827160493825,136.1049382716049,0)" xlink:href="#as"/><use transform="matrix(0.10493827160493825,0,0,0.10493827160493825,157.09259259259255,0)" xlink:href="#at"/></g><g id="z"><use transform="matrix(0.10493827160493825,0,0,0.10493827160493825,0,0)" xlink:href="#ay"/><use transform="matrix(0.10493827160493825,0,0,0.10493827160493825,22.981481481481477,0)" xlink:href="#as"/><use transform="matrix(0.10493827160493825,0,0,0.10493827160493825,43.969135802469125,0)" xlink:href="#aA"/><use transform="matrix(0.10493827160493825,0,0,0.10493827160493825,56.45679012345678,0)" xlink:href="#av"/></g><linearGradient gradientUnits="userSpaceOnUse" id="A" x1="-1211.26" y1="-460" x2="-1211.26" y2="-201.43"><stop offset="0%" stop-color="#ff6f16"/><stop offset="48.55%" stop-color="#cc4e00"/><stop offset="100%" stop-color="#873400"/></linearGradient><path fill="#fff" d="M238-95c0 69-44 99-111 99C63 4 22-25 22-93v-155h51v151c-1 38 19 59 55 60 90 1 49-130 58-211h52v153" id="aP"/><g id="B"><use transform="matrix(0.10493827160493825,0,0,0.10493827160493825,0,0)" xlink:href="#aP"/><use transform="matrix(0.10493827160493825,0,0,0.10493827160493825,27.179012345679006,0)" xlink:href="#aE"/><use transform="matrix(0.10493827160493825,0,0,0.10493827160493825,50.16049382716048,0)" xlink:href="#at"/><use transform="matrix(0.10493827160493825,0,0,0.10493827160493825,60.654320987654295,0)" xlink:href="#aq"/><use transform="matrix(0.10493827160493825,0,0,0.10493827160493825,83.63580246913578,0)" xlink:href="#as"/><use transform="matrix(0.10493827160493825,0,0,0.10493827160493825,104.62345679012344,0)" xlink:href="#ay"/></g><g id="C"><use transform="matrix(0.10493827160493825,0,0,0.10493827160493825,0,0)" xlink:href="#as"/><use transform="matrix(0.10493827160493825,0,0,0.10493827160493825,20.98765432098765,0)" xlink:href="#aH"/><use transform="matrix(0.10493827160493825,0,0,0.10493827160493825,35.679012345679006,0)" xlink:href="#aA"/><use transform="matrix(0.10493827160493825,0,0,0.10493827160493825,48.16666666666666,0)" xlink:href="#ax"/><use transform="matrix(0.10493827160493825,0,0,0.10493827160493825,58.66049382716048,0)" xlink:href="#aB"/><use transform="matrix(0.10493827160493825,0,0,0.10493827160493825,71.14814814814812,0)" xlink:href="#as"/><use transform="matrix(0.10493827160493825,0,0,0.10493827160493825,92.13580246913577,0)" xlink:href="#ar"/><use transform="matrix(0.10493827160493825,0,0,0.10493827160493825,113.12345679012341,0)" xlink:href="#aA"/></g><g id="D"><use transform="matrix(0.10493827160493825,0,0,0.10493827160493825,0,0)" xlink:href="#aN"/><use transform="matrix(0.10493827160493825,0,0,0.10493827160493825,29.38271604938271,0)" xlink:href="#aD"/><use transform="matrix(0.10493827160493825,0,0,0.10493827160493825,52.36419753086419,0)" xlink:href="#av"/><use transform="matrix(0.10493827160493825,0,0,0.10493827160493825,73.35185185185185,0)" xlink:href="#aH"/><use transform="matrix(0.10493827160493825,0,0,0.10493827160493825,88.0432098765432,0)" xlink:href="#av"/></g><g id="E"><use transform="matrix(0.10493827160493825,0,0,0.10493827160493825,0,0)" xlink:href="#ar"/><use transform="matrix(0.10493827160493825,0,0,0.10493827160493825,20.98765432098765,0)" xlink:href="#at"/><use transform="matrix(0.10493827160493825,0,0,0.10493827160493825,31.481481481481474,0)" xlink:href="#ax"/><use transform="matrix(0.10493827160493825,0,0,0.10493827160493825,41.9753086419753,0)" xlink:href="#aK"/><use transform="matrix(0.10493827160493825,0,0,0.10493827160493825,75.55555555555554,0)" xlink:href="#as"/><use transform="matrix(0.10493827160493825,0,0,0.10493827160493825,96.54320987654319,0)" xlink:href="#aA"/><use transform="matrix(0.10493827160493825,0,0,0.10493827160493825,109.03086419753085,0)" xlink:href="#av"/></g><path fill="#fff" d="M195-6C206 82 75 100 31 46c-4-6-6-13-8-21l49-6c3 16 16 24 34 25 40 0 42-37 40-79-11 22-30 35-61 35-53 0-70-43-70-97 0-56 18-96 73-97 30 0 46 14 59 34l2-30h47zm-90-29c32 0 41-27 41-63 0-35-9-62-40-62-32 0-39 29-40 63 0 36 9 62 39 62" id="aQ"/><g id="F"><use transform="matrix(0.10493827160493825,0,0,0.10493827160493825,0,0)" xlink:href="#ar"/><use transform="matrix(0.10493827160493825,0,0,0.10493827160493825,20.98765432098765,0)" xlink:href="#aD"/><use transform="matrix(0.10493827160493825,0,0,0.10493827160493825,43.969135802469125,0)" xlink:href="#as"/><use transform="matrix(0.10493827160493825,0,0,0.10493827160493825,64.95679012345678,0)" xlink:href="#az"/><use transform="matrix(0.10493827160493825,0,0,0.10493827160493825,87.93827160493827,0)" xlink:href="#aQ"/><use transform="matrix(0.10493827160493825,0,0,0.10493827160493825,110.91975308641976,0)" xlink:href="#av"/></g><g id="G"><use transform="matrix(0.10493827160493825,0,0,0.10493827160493825,0,0)" xlink:href="#aq"/><use transform="matrix(0.10493827160493825,0,0,0.10493827160493825,22.981481481481477,0)" xlink:href="#aH"/></g><g id="H"><use transform="matrix(0.10493827160493825,0,0,0.10493827160493825,0,0)" xlink:href="#aw"/><use transform="matrix(0.10493827160493825,0,0,0.10493827160493825,20.98765432098765,0)" xlink:href="#av"/><use transform="matrix(0.10493827160493825,0,0,0.10493827160493825,41.9753086419753,0)" xlink:href="#as"/></g><g id="I"><use transform="matrix(0.10493827160493825,0,0,0.10493827160493825,0,0)" xlink:href="#at"/><use transform="matrix(0.10493827160493825,0,0,0.10493827160493825,10.493827160493826,0)" xlink:href="#av"/><use transform="matrix(0.10493827160493825,0,0,0.10493827160493825,31.481481481481474,0)" xlink:href="#aO"/><use transform="matrix(0.10493827160493825,0,0,0.10493827160493825,52.469135802469125,0)" xlink:href="#av"/><use transform="matrix(0.10493827160493825,0,0,0.10493827160493825,73.45679012345678,0)" xlink:href="#at"/></g><g id="J"><use transform="matrix(0.10493827160493825,0,0,0.10493827160493825,0,0)" xlink:href="#aH"/><use transform="matrix(0.10493827160493825,0,0,0.10493827160493825,14.691358024691356,0)" xlink:href="#ax"/><use transform="matrix(0.10493827160493825,0,0,0.10493827160493825,25.185185185185183,0)" xlink:href="#aw"/><use transform="matrix(0.10493827160493825,0,0,0.10493827160493825,46.172839506172835,0)" xlink:href="#av"/></g><g id="K"><use transform="matrix(0.10493827160493825,0,0,0.10493827160493825,0,0)" xlink:href="#ax"/><use transform="matrix(0.10493827160493825,0,0,0.10493827160493825,10.493827160493826,0)" xlink:href="#az"/><use transform="matrix(0.10493827160493825,0,0,0.10493827160493825,33.4753086419753,0)" xlink:href="#aw"/><use transform="matrix(0.10493827160493825,0,0,0.10493827160493825,54.462962962962955,0)" xlink:href="#aA"/><use transform="matrix(0.10493827160493825,0,0,0.10493827160493825,66.9506172839506,0)" xlink:href="#as"/><use transform="matrix(0.10493827160493825,0,0,0.10493827160493825,87.93827160493825,0)" xlink:href="#az"/><use transform="matrix(0.10493827160493825,0,0,0.10493827160493825,110.91975308641973,0)" xlink:href="#ar"/><use transform="matrix(0.10493827160493825,0,0,0.10493827160493825,131.9074074074074,0)" xlink:href="#av"/></g><g id="L"><use transform="matrix(0.10493827160493825,0,0,0.10493827160493825,0,0)" xlink:href="#aq"/><use transform="matrix(0.10493827160493825,0,0,0.10493827160493825,22.981481481481477,0)" xlink:href="#ar"/><use transform="matrix(0.10493827160493825,0,0,0.10493827160493825,43.969135802469125,0)" xlink:href="#ar"/><use transform="matrix(0.10493827160493825,0,0,0.10493827160493825,64.95679012345678,0)" xlink:href="#aJ"/><use transform="matrix(0.10493827160493825,0,0,0.10493827160493825,87.93827160493827,0)" xlink:href="#aH"/><use transform="matrix(0.10493827160493825,0,0,0.10493827160493825,102.62962962962962,0)" xlink:href="#av"/><use transform="matrix(0.10493827160493825,0,0,0.10493827160493825,123.61728395061726,0)" xlink:href="#ay"/></g><g id="M"><use transform="matrix(0.10493827160493825,0,0,0.10493827160493825,0,0)" xlink:href="#aq"/><use transform="matrix(0.10493827160493825,0,0,0.10493827160493825,22.981481481481477,0)" xlink:href="#az"/></g><g id="N"><use transform="matrix(0.10493827160493825,0,0,0.10493827160493825,0,0)" xlink:href="#aA"/><use transform="matrix(0.10493827160493825,0,0,0.10493827160493825,12.487654320987652,0)" xlink:href="#aD"/><use transform="matrix(0.10493827160493825,0,0,0.10493827160493825,35.469135802469125,0)" xlink:href="#av"/></g><g id="O"><use transform="matrix(0.10493827160493825,0,0,0.10493827160493825,0,0)" xlink:href="#aK"/><use transform="matrix(0.10493827160493825,0,0,0.10493827160493825,33.58024691358024,0)" xlink:href="#as"/><use transform="matrix(0.10493827160493825,0,0,0.10493827160493825,54.56790123456789,0)" xlink:href="#aE"/></g><linearGradient gradientUnits="userSpaceOnUse" id="P" x1="-71.55" y1="-980" x2="-71.55" y2="-698.4"><stop offset="0%" stop-color="#ff6f16"/><stop offset="48.55%" stop-color="#cc4e00"/><stop offset="100%" stop-color="#873400"/></linearGradient><path fill="#fff" d="M24 0v-248h195v40H76v63h132v40H76v65h150V0H24" id="aR"/><g id="Q"><use transform="matrix(0.10493827160493825,0,0,0.10493827160493825,0,0)" xlink:href="#aR"/><use transform="matrix(0.10493827160493825,0,0,0.10493827160493825,25.18518518518518,0)" xlink:href="#aO"/><use transform="matrix(0.10493827160493825,0,0,0.10493827160493825,46.172839506172835,0)" xlink:href="#av"/><use transform="matrix(0.10493827160493825,0,0,0.10493827160493825,67.16049382716048,0)" xlink:href="#az"/><use transform="matrix(0.10493827160493825,0,0,0.10493827160493825,90.14197530864196,0)" xlink:href="#aA"/></g><g id="R"><use transform="matrix(0.10493827160493825,0,0,0.10493827160493825,0,0)" xlink:href="#aN"/><use transform="matrix(0.10493827160493825,0,0,0.10493827160493825,29.38271604938271,0)" xlink:href="#aD"/><use transform="matrix(0.10493827160493825,0,0,0.10493827160493825,52.36419753086419,0)" xlink:href="#av"/><use transform="matrix(0.10493827160493825,0,0,0.10493827160493825,73.35185185185185,0)" xlink:href="#aH"/><use transform="matrix(0.10493827160493825,0,0,0.10493827160493825,88.0432098765432,0)" xlink:href="#av"/></g><g id="S"><use transform="matrix(0.10493827160493825,0,0,0.10493827160493825,0,0)" xlink:href="#aE"/><use transform="matrix(0.10493827160493825,0,0,0.10493827160493825,22.981481481481477,0)" xlink:href="#aJ"/><use transform="matrix(0.10493827160493825,0,0,0.10493827160493825,45.962962962962955,0)" xlink:href="#aL"/><use transform="matrix(0.10493827160493825,0,0,0.10493827160493825,68.94444444444443,0)" xlink:href="#at"/><use transform="matrix(0.10493827160493825,0,0,0.10493827160493825,79.43827160493825,0)" xlink:href="#ax"/><use transform="matrix(0.10493827160493825,0,0,0.10493827160493825,89.93209876543207,0)" xlink:href="#ar"/></g><g id="T"><use transform="matrix(0.10493827160493825,0,0,0.10493827160493825,0,0)" xlink:href="#ar"/><use transform="matrix(0.10493827160493825,0,0,0.10493827160493825,20.98765432098765,0)" xlink:href="#as"/><use transform="matrix(0.10493827160493825,0,0,0.10493827160493825,41.9753086419753,0)" xlink:href="#az"/></g><path fill="#fff" d="M25-224v-37h50v37H25zM75 22c2 45-34 59-81 51V38c22 5 31-5 31-27v-201h50V22" id="aS"/><path fill="#fff" d="M123 10C108 53 80 86 19 72V37c35 8 53-11 59-39L3-190h52l48 148c12-52 28-100 44-148h51" id="aT"/><g id="U"><use transform="matrix(0.10493827160493825,0,0,0.10493827160493825,0,0)" xlink:href="#av"/><use transform="matrix(0.10493827160493825,0,0,0.10493827160493825,20.98765432098765,0)" xlink:href="#az"/><use transform="matrix(0.10493827160493825,0,0,0.10493827160493825,43.969135802469125,0)" xlink:href="#aS"/><use transform="matrix(0.10493827160493825,0,0,0.10493827160493825,54.462962962962955,0)" xlink:href="#aq"/><use transform="matrix(0.10493827160493825,0,0,0.10493827160493825,77.44444444444443,0)" xlink:href="#aT"/></g><use transform="matrix(0.10493827160493825,0,0,0.10493827160493825,0,0)" xlink:href="#as" id="V"/><g id="W"><use transform="matrix(0.10493827160493825,0,0,0.10493827160493825,0,0)" xlink:href="#ar"/><use transform="matrix(0.10493827160493825,0,0,0.10493827160493825,20.98765432098765,0)" xlink:href="#at"/><use transform="matrix(0.10493827160493825,0,0,0.10493827160493825,31.481481481481474,0)" xlink:href="#ax"/><use transform="matrix(0.10493827160493825,0,0,0.10493827160493825,41.9753086419753,0)" xlink:href="#aK"/><use transform="matrix(0.10493827160493825,0,0,0.10493827160493825,75.55555555555554,0)" xlink:href="#as"/><use transform="matrix(0.10493827160493825,0,0,0.10493827160493825,96.54320987654319,0)" xlink:href="#aA"/><use transform="matrix(0.10493827160493825,0,0,0.10493827160493825,109.03086419753085,0)" xlink:href="#av"/></g><g id="X"><use transform="matrix(0.10493827160493825,0,0,0.10493827160493825,0,0)" xlink:href="#as"/><use transform="matrix(0.10493827160493825,0,0,0.10493827160493825,20.98765432098765,0)" xlink:href="#az"/><use transform="matrix(0.10493827160493825,0,0,0.10493827160493825,43.969135802469125,0)" xlink:href="#ay"/></g><g id="Y"><use transform="matrix(0.10493827160493825,0,0,0.10493827160493825,0,0)" xlink:href="#at"/><use transform="matrix(0.10493827160493825,0,0,0.10493827160493825,10.493827160493826,0)" xlink:href="#av"/><use transform="matrix(0.10493827160493825,0,0,0.10493827160493825,31.481481481481474,0)" xlink:href="#aO"/><use transform="matrix(0.10493827160493825,0,0,0.10493827160493825,52.469135802469125,0)" xlink:href="#av"/><use transform="matrix(0.10493827160493825,0,0,0.10493827160493825,73.45679012345678,0)" xlink:href="#at"/></g><g id="Z"><use transform="matrix(0.10493827160493825,0,0,0.10493827160493825,0,0)" xlink:href="#aw"/><use transform="matrix(0.10493827160493825,0,0,0.10493827160493825,20.98765432098765,0)" xlink:href="#aq"/><use transform="matrix(0.10493827160493825,0,0,0.10493827160493825,43.969135802469125,0)" xlink:href="#aJ"/><use transform="matrix(0.10493827160493825,0,0,0.10493827160493825,66.9506172839506,0)" xlink:href="#az"/><use transform="matrix(0.10493827160493825,0,0,0.10493827160493825,89.93209876543209,0)" xlink:href="#ay"/></g><g id="aa"><use transform="matrix(0.10493827160493825,0,0,0.10493827160493825,0,0)" xlink:href="#aK"/><use transform="matrix(0.10493827160493825,0,0,0.10493827160493825,33.58024691358024,0)" xlink:href="#as"/><use transform="matrix(0.10493827160493825,0,0,0.10493827160493825,54.56790123456789,0)" xlink:href="#aE"/></g><g id="ab"><use transform="matrix(0.10493827160493825,0,0,0.10493827160493825,0,0)" xlink:href="#ax"/><use transform="matrix(0.10493827160493825,0,0,0.10493827160493825,10.493827160493826,0)" xlink:href="#az"/></g><g id="ac"><use transform="matrix(0.10493827160493825,0,0,0.10493827160493825,0,0)" xlink:href="#aq"/><use transform="matrix(0.10493827160493825,0,0,0.10493827160493825,22.981481481481477,0)" xlink:href="#aJ"/><use transform="matrix(0.10493827160493825,0,0,0.10493827160493825,45.962962962962955,0)" xlink:href="#aH"/></g><path fill="#fff" d="M144 0l-44-69L55 0H2l70-98-66-92h53l41 62 40-62h54l-67 91 71 99h-54" id="aU"/><g id="ad"><use transform="matrix(0.10493827160493825,0,0,0.10493827160493825,0,0)" xlink:href="#av"/><use transform="matrix(0.10493827160493825,0,0,0.10493827160493825,20.98765432098765,0)" xlink:href="#aU"/><use transform="matrix(0.10493827160493825,0,0,0.10493827160493825,41.9753086419753,0)" xlink:href="#aE"/><use transform="matrix(0.10493827160493825,0,0,0.10493827160493825,64.95679012345678,0)" xlink:href="#av"/><use transform="matrix(0.10493827160493825,0,0,0.10493827160493825,85.94444444444443,0)" xlink:href="#aH"/><use transform="matrix(0.10493827160493825,0,0,0.10493827160493825,100.63580246913578,0)" xlink:href="#ax"/><use transform="matrix(0.10493827160493825,0,0,0.10493827160493825,111.1296296296296,0)" xlink:href="#av"/><use transform="matrix(0.10493827160493825,0,0,0.10493827160493825,132.11728395061726,0)" xlink:href="#az"/><use transform="matrix(0.10493827160493825,0,0,0.10493827160493825,155.09876543209873,0)" xlink:href="#ar"/><use transform="matrix(0.10493827160493825,0,0,0.10493827160493825,176.08641975308637,0)" xlink:href="#av"/></g><g id="ae"><use transform="matrix(0.10493827160493825,0,0,0.10493827160493825,0,0)" xlink:href="#ar"/><use transform="matrix(0.10493827160493825,0,0,0.10493827160493825,20.98765432098765,0)" xlink:href="#aH"/><use transform="matrix(0.10493827160493825,0,0,0.10493827160493825,35.679012345679006,0)" xlink:href="#as"/><use transform="matrix(0.10493827160493825,0,0,0.10493827160493825,56.66666666666666,0)" xlink:href="#aA"/><use transform="matrix(0.10493827160493825,0,0,0.10493827160493825,69.1543209876543,0)" xlink:href="#av"/></g><linearGradient gradientUnits="userSpaceOnUse" id="af" x1="-480" y1="-680" x2="-480" y2="20"><stop offset="5.78%" stop-color="#f2f3f5"/><stop offset="23.47%" stop-color="#e3fae3"/><stop offset="99.28%" stop-color="#e3fae3"/></linearGradient><path d="M195 0l-88-114-31 24V0H24v-248h52v113l112-113h60L142-143 257 0h-62" id="aV"/><path d="M185-48c-13 30-37 53-82 52C43 2 14-33 14-96s30-98 90-98c62 0 83 45 84 108H66c0 31 8 55 39 56 18 0 30-7 34-22zm-45-69c5-46-57-63-70-21-2 6-4 13-4 21h74" id="aW"/><path d="M123 10C108 53 80 86 19 72V37c35 8 53-11 59-39L3-190h52l48 148c12-52 28-100 44-148h51" id="aX"/><g id="ag"><use transform="matrix(0.12345679012345674,0,0,0.12345679012345674,0,0)" xlink:href="#aV"/><use transform="matrix(0.12345679012345674,0,0,0.12345679012345674,31.975308641975296,0)" xlink:href="#aW"/><use transform="matrix(0.12345679012345674,0,0,0.12345679012345674,56.66666666666664,0)" xlink:href="#aX"/></g><path d="M240 0l2-218c-23 76-54 145-80 218h-23L58-218 59 0H30v-248h44l77 211c21-75 51-140 76-211h43V0h-30" id="aY"/><path d="M141-36C126-15 110 5 73 4 37 3 15-17 15-53c-1-64 63-63 125-63 3-35-9-54-41-54-24 1-41 7-42 31l-33-3c5-37 33-52 76-52 45 0 72 20 72 64v82c-1 20 7 32 28 27v20c-31 9-61-2-59-35zM48-53c0 20 12 33 32 33 41-3 63-29 60-74-43 2-92-5-92 41" id="aZ"/><path d="M117-194c89-4 53 116 60 194h-32v-121c0-31-8-49-39-48C34-167 62-67 57 0H25l-1-190h30c1 10-1 24 2 32 11-22 29-35 61-36" id="ba"/><path d="M84 4C-5 8 30-112 23-190h32v120c0 31 7 50 39 49 72-2 45-101 50-169h31l1 190h-30c-1-10 1-25-2-33-11 22-28 36-60 37" id="bb"/><path d="M100-194c63 0 86 42 84 106H49c0 40 14 67 53 68 26 1 43-12 49-29l28 8c-11 28-37 45-77 45C44 4 14-33 15-96c1-61 26-98 85-98zm52 81c6-60-76-77-97-28-3 7-6 17-6 28h103" id="bc"/><path d="M24 0v-261h32V0H24" id="bd"/><g id="ah"><use transform="matrix(0.12345679012345674,0,0,0.12345679012345674,0,0)" xlink:href="#aY"/><use transform="matrix(0.12345679012345674,0,0,0.12345679012345674,36.91358024691357,0)" xlink:href="#aZ"/><use transform="matrix(0.12345679012345674,0,0,0.12345679012345674,61.604938271604915,0)" xlink:href="#ba"/><use transform="matrix(0.12345679012345674,0,0,0.12345679012345674,86.29629629629626,0)" xlink:href="#bb"/><use transform="matrix(0.12345679012345674,0,0,0.12345679012345674,110.98765432098762,0)" xlink:href="#bc"/><use transform="matrix(0.12345679012345674,0,0,0.12345679012345674,135.67901234567896,0)" xlink:href="#bd"/></g><path d="M30-248c87 1 191-15 191 75 0 78-77 80-158 76V0H30v-248zm33 125c57 0 124 11 124-50 0-59-68-47-124-48v98" id="be"/><path d="M114-163C36-179 61-72 57 0H25l-1-190h30c1 12-1 29 2 39 6-27 23-49 58-41v29" id="bf"/><path d="M100-194c62-1 85 37 85 99 1 63-27 99-86 99S16-35 15-95c0-66 28-99 85-99zM99-20c44 1 53-31 53-75 0-43-8-75-51-75s-53 32-53 75 10 74 51 75" id="bg"/><path d="M96-169c-40 0-48 33-48 73s9 75 48 75c24 0 41-14 43-38l32 2c-6 37-31 61-74 61-59 0-76-41-82-99-10-93 101-131 147-64 4 7 5 14 7 22l-32 3c-4-21-16-35-41-35" id="bh"/><path d="M135-143c-3-34-86-38-87 0 15 53 115 12 119 90S17 21 10-45l28-5c4 36 97 45 98 0-10-56-113-15-118-90-4-57 82-63 122-42 12 7 21 19 24 35" id="bi"/><g id="ai"><use transform="matrix(0.12345679012345674,0,0,0.12345679012345674,0,0)" xlink:href="#be"/><use transform="matrix(0.12345679012345674,0,0,0.12345679012345674,29.62962962962962,0)" xlink:href="#bf"/><use transform="matrix(0.12345679012345674,0,0,0.12345679012345674,44.32098765432097,0)" xlink:href="#bg"/><use transform="matrix(0.12345679012345674,0,0,0.12345679012345674,69.01234567901233,0)" xlink:href="#bh"/><use transform="matrix(0.12345679012345674,0,0,0.12345679012345674,91.23456790123454,0)" xlink:href="#bc"/><use transform="matrix(0.12345679012345674,0,0,0.12345679012345674,115.9259259259259,0)" xlink:href="#bi"/><use transform="matrix(0.12345679012345674,0,0,0.12345679012345674,138.1481481481481,0)" xlink:href="#bi"/></g><path d="M205 0l-28-72H64L36 0H1l101-248h38L239 0h-34zm-38-99l-47-123c-12 45-31 82-46 123h93" id="bj"/><path d="M59-47c-2 24 18 29 38 22v24C64 9 27 4 27-40v-127H5v-23h24l9-43h21v43h35v23H59v120" id="bk"/><path d="M210-169c-67 3-38 105-44 169h-31v-121c0-29-5-50-35-48C34-165 62-65 56 0H25l-1-190h30c1 10-1 24 2 32 10-44 99-50 107 0 11-21 27-35 58-36 85-2 47 119 55 194h-31v-121c0-29-5-49-35-48" id="bl"/><path d="M85-194c31 0 48 13 60 33l-1-100h32l1 261h-30c-2-10 0-23-3-31C134-8 116 4 85 4 32 4 16-35 15-94c0-66 23-100 70-100zm9 24c-40 0-46 34-46 75 0 40 6 74 45 74 42 0 51-32 51-76 0-42-9-74-50-73" id="bm"/><g id="aj"><use transform="matrix(0.12345679012345674,0,0,0.12345679012345674,0,0)" xlink:href="#bj"/><use transform="matrix(0.12345679012345674,0,0,0.12345679012345674,29.62962962962962,0)" xlink:href="#bb"/><use transform="matrix(0.12345679012345674,0,0,0.12345679012345674,54.320987654320966,0)" xlink:href="#bk"/><use transform="matrix(0.12345679012345674,0,0,0.12345679012345674,66.66666666666664,0)" xlink:href="#bg"/><use transform="matrix(0.12345679012345674,0,0,0.12345679012345674,91.358024691358,0)" xlink:href="#bl"/><use transform="matrix(0.12345679012345674,0,0,0.12345679012345674,128.27160493827157,0)" xlink:href="#aZ"/><use transform="matrix(0.12345679012345674,0,0,0.12345679012345674,152.9629629629629,0)" xlink:href="#bk"/><use transform="matrix(0.12345679012345674,0,0,0.12345679012345674,165.30864197530857,0)" xlink:href="#bc"/><use transform="matrix(0.12345679012345674,0,0,0.12345679012345674,189.99999999999991,0)" xlink:href="#bm"/></g><path d="M87 75C49 33 22-17 22-94c0-76 28-126 65-167h31c-38 41-64 92-64 168S80 34 118 75H87" id="bn"/><path d="M30 0v-248h33v221h125V0H30" id="bo"/><path d="M24-231v-30h32v30H24zM24 0v-190h32V0H24" id="bp"/><path d="M33-154v-36h34v36H33zM33 0v-36h34V0H33" id="bq"/><path d="M33-261c38 41 65 92 65 168S71 34 33 75H2C39 34 66-17 66-93S39-220 2-261h31" id="br"/><g id="ak"><use transform="matrix(0.12345679012345674,0,0,0.12345679012345674,0,0)" xlink:href="#bn"/><use transform="matrix(0.12345679012345674,0,0,0.12345679012345674,14.691358024691352,0)" xlink:href="#bo"/><use transform="matrix(0.12345679012345674,0,0,0.12345679012345674,39.3827160493827,0)" xlink:href="#bp"/><use transform="matrix(0.12345679012345674,0,0,0.12345679012345674,49.13580246913578,0)" xlink:href="#ba"/><use transform="matrix(0.12345679012345674,0,0,0.12345679012345674,73.82716049382714,0)" xlink:href="#bc"/><use transform="matrix(0.12345679012345674,0,0,0.12345679012345674,98.51851851851848,0)" xlink:href="#bi"/><use transform="matrix(0.12345679012345674,0,0,0.12345679012345674,120.74074074074069,0)" xlink:href="#bq"/><use transform="matrix(0.12345679012345674,0,0,0.12345679012345674,133.08641975308637,0)" xlink:href="#br"/></g><path d="M185-189c-5-48-123-54-124 2 14 75 158 14 163 119 3 78-121 87-175 55-17-10-28-26-33-46l33-7c5 56 141 63 141-1 0-78-155-14-162-118-5-82 145-84 179-34 5 7 8 16 11 25" id="bs"/><g id="al"><use transform="matrix(0.12345679012345674,0,0,0.12345679012345674,0,0)" xlink:href="#bs"/><use transform="matrix(0.12345679012345674,0,0,0.12345679012345674,29.62962962962962,0)" xlink:href="#bk"/><use transform="matrix(0.12345679012345674,0,0,0.12345679012345674,41.97530864197529,0)" xlink:href="#aZ"/><use transform="matrix(0.12345679012345674,0,0,0.12345679012345674,66.66666666666663,0)" xlink:href="#bk"/><use transform="matrix(0.12345679012345674,0,0,0.12345679012345674,79.0123456790123,0)" xlink:href="#bc"/></g><path d="M127-220V0H93v-220H8v-28h204v28h-85" id="bt"/><g id="am"><use transform="matrix(0.12345679012345674,0,0,0.12345679012345674,0,0)" xlink:href="#bt"/><use transform="matrix(0.12345679012345674,0,0,0.12345679012345674,25.43209876543209,0)" xlink:href="#bf"/><use transform="matrix(0.12345679012345674,0,0,0.12345679012345674,40.12345679012344,0)" xlink:href="#aZ"/><use transform="matrix(0.12345679012345674,0,0,0.12345679012345674,64.81481481481478,0)" xlink:href="#ba"/><use transform="matrix(0.12345679012345674,0,0,0.12345679012345674,89.50617283950612,0)" xlink:href="#bi"/><use transform="matrix(0.12345679012345674,0,0,0.12345679012345674,111.72839506172834,0)" xlink:href="#bp"/><use transform="matrix(0.12345679012345674,0,0,0.12345679012345674,121.48148148148141,0)" xlink:href="#bk"/><use transform="matrix(0.12345679012345674,0,0,0.12345679012345674,133.82716049382708,0)" xlink:href="#bp"/><use transform="matrix(0.12345679012345674,0,0,0.12345679012345674,143.58024691358017,0)" xlink:href="#bg"/><use transform="matrix(0.12345679012345674,0,0,0.12345679012345674,168.2716049382715,0)" xlink:href="#ba"/><use transform="matrix(0.12345679012345674,0,0,0.12345679012345674,192.96296296296285,0)" xlink:href="#bi"/></g><path d="M30 0v-248h187v28H63v79h144v27H63v87h162V0H30" id="bu"/><path d="M177-190C167-65 218 103 67 71c-23-6-38-20-44-43l32-5c15 47 100 32 89-28v-30C133-14 115 1 83 1 29 1 15-40 15-95c0-56 16-97 71-98 29-1 48 16 59 35 1-10 0-23 2-32h30zM94-22c36 0 50-32 50-73 0-42-14-75-50-75-39 0-46 34-46 75s6 73 46 73" id="bv"/><g id="an"><use transform="matrix(0.12345679012345674,0,0,0.12345679012345674,0,0)" xlink:href="#bu"/><use transform="matrix(0.12345679012345674,0,0,0.12345679012345674,29.62962962962962,0)" xlink:href="#ba"/><use transform="matrix(0.12345679012345674,0,0,0.12345679012345674,54.320987654320966,0)" xlink:href="#bm"/><use transform="matrix(0.12345679012345674,0,0,0.12345679012345674,79.01234567901231,0)" xlink:href="#bb"/><use transform="matrix(0.12345679012345674,0,0,0.12345679012345674,103.70370370370367,0)" xlink:href="#bf"/><use transform="matrix(0.12345679012345674,0,0,0.12345679012345674,118.39506172839502,0)" xlink:href="#bp"/><use transform="matrix(0.12345679012345674,0,0,0.12345679012345674,128.1481481481481,0)" xlink:href="#ba"/><use transform="matrix(0.12345679012345674,0,0,0.12345679012345674,152.83950617283944,0)" xlink:href="#bv"/></g><g id="ao"><use transform="matrix(0.12345679012345674,0,0,0.12345679012345674,0,0)" xlink:href="#bi"/><use transform="matrix(0.12345679012345674,0,0,0.12345679012345674,22.222222222222214,0)" xlink:href="#bk"/><use transform="matrix(0.12345679012345674,0,0,0.12345679012345674,34.567901234567884,0)" xlink:href="#aZ"/><use transform="matrix(0.12345679012345674,0,0,0.12345679012345674,59.25925925925923,0)" xlink:href="#bk"/><use transform="matrix(0.12345679012345674,0,0,0.12345679012345674,71.60493827160491,0)" xlink:href="#bc"/></g></defs></g></svg>